<svg width="16" height="16" viewBox="0 0 16 16" fill="none" xmlns="http://www.w3.org/2000/svg">
<g clip-path="url(#clip0_31_8095)">
<path d="M10.2017 10.3079H5.81139L3.9314 13.5918C4.15756 13.7068 4.4144 13.7805 4.58051 13.7805C6.30755 13.7805 9.83218 13.7549 11.5818 13.7549C11.7618 13.7549 11.9302 13.6936 12.0812 13.5975L10.2017 10.3079Z" fill="#4185F3"/>
<path d="M3.93156 13.592L5.81155 10.3081H2.00199C2.00007 10.5363 2.08121 10.7451 2.20835 10.9833C2.56255 11.6459 3.16183 12.7052 3.51385 13.2585C3.60062 13.3948 3.9451 13.5989 3.93156 13.592Z" fill="#1767D1"/>
<path d="M10.2019 10.3079L12.082 13.597C12.3257 13.4421 12.5243 13.1968 12.6532 12.9709C12.9443 12.4614 13.4365 11.6131 13.776 11.0388C13.9338 10.7717 13.9951 10.5319 13.9913 10.3076L10.2019 10.3079Z" fill="#E94235"/>
<path d="M5.81184 10.3082L8.00476 6.49581L6.0449 3.22827C5.83292 3.36768 5.6516 3.55692 5.56931 3.70105C4.71384 5.20142 2.9905 8.27639 2.12391 9.79618C2.03511 9.95169 1.9926 10.1293 2.00137 10.3082H5.81184Z" fill="#30A753"/>
<path d="M10.2018 10.3081L8.00488 6.49576L9.91095 3.23193C10.1229 3.37147 10.3556 3.55687 10.4379 3.70113C11.2934 5.20137 13.0167 8.27635 13.8837 9.79614C13.9731 9.95241 14.0001 10.1293 13.9914 10.3081H10.2018Z" fill="#F9BC00"/>
<path d="M6.04468 3.22871L8.00479 6.49573L9.91085 3.2319C9.71407 3.1169 9.43539 3.0488 9.16552 3.04024C8.4147 3.01519 7.19749 3.0051 6.54237 3.03359C6.38086 3.04062 6.04672 3.2273 6.04468 3.22871Z" fill="#0F8038"/>
</g>
<defs>
<clipPath id="clip0_31_8095">
<rect width="12" height="10.7856" fill="white" transform="translate(2 3)"/>
</clipPath>
</defs>
</svg>
