<svg width="100" height="100" viewBox="0 0 100 100" fill="none" xmlns="http://www.w3.org/2000/svg">
<rect width="100" height="100" rx="50" fill="#F6F5F4"/>
<path d="M42.9203 22.0026C32.9889 24.5282 25.1978 32.4583 21.0348 42.7643C5.79524 80.1355 67.053 76.8393 84.1762 54.0227C81.2331 40.5811 61.4774 26.7649 42.9203 22.0026Z" fill="#1302E7"/>
<path d="M54.3482 21.4888C50.5426 20.8883 46.6548 21.0631 42.9185 22.0025C61.4756 26.7648 81.2314 40.5811 84.2173 54.0227C85.3359 52.5511 86.2705 50.9482 86.9997 49.2496C91.4304 37.6915 65.2321 23.1476 54.3482 21.4888Z" fill="#6763FB"/>
<path d="M21.0339 42.7644C25.2291 32.4583 32.9879 24.5711 42.9193 22.0026C34.101 19.7338 25.5501 19.5091 19.2145 22.3451C8.13805 27.5997 12.5044 53.3914 19.846 65.5702C30.8155 82.8323 52.1658 82.49 69.2995 75.052C82.099 69.3373 85.9304 61.7496 84.218 54.0227C67.0843 76.8287 5.79433 80.1355 21.0339 42.7644Z" fill="#47CDFB"/>
<path d="M58.1364 39.7254C57.0188 39.7273 55.9138 39.9614 54.8912 40.4126C53.8688 40.864 52.9513 41.5228 52.1969 42.3474C51.1038 41.1471 49.6732 40.3054 48.0931 39.933C46.5129 39.5605 44.857 39.6746 43.3429 40.2604C41.8288 40.846 40.5273 41.876 39.6092 43.2149C38.6912 44.5539 38.1995 46.1392 38.1987 47.7626V57.6298H42.4795V47.7626C42.4795 46.7521 42.8809 45.783 43.5954 45.0686C44.3099 44.3541 45.2789 43.9527 46.2894 43.9527C47.2998 43.9527 48.2689 44.3541 48.9834 45.0686C49.6978 45.783 50.0992 46.7521 50.0992 47.7626V57.6298H54.3801V47.7626C54.3801 46.7521 54.7814 45.783 55.4959 45.0686C56.2104 44.3541 57.1795 43.9527 58.1899 43.9527C59.2004 43.9527 60.1694 44.3541 60.8839 45.0686C61.5984 45.783 61.9998 46.7521 61.9998 47.7626V57.6298H66.2806V47.7626C66.2792 46.6984 66.0669 45.6451 65.6558 44.6636C65.2447 43.6821 64.6431 42.7919 63.8856 42.0445C63.1282 41.297 62.2302 40.7073 61.2432 40.3092C60.2564 39.9112 59.2004 39.7128 58.1364 39.7254Z" fill="white"/>
<path d="M36.2958 33.7109C35.6992 33.7193 35.1184 33.9038 34.6262 34.2412C34.134 34.5787 33.7525 35.0538 33.5295 35.6074C33.3064 36.1608 33.252 36.7678 33.3728 37.3523C33.4936 37.9366 33.7842 38.4723 34.2084 38.892C34.6325 39.3117 35.1712 39.5968 35.7569 39.7115C36.3424 39.826 36.9488 39.7652 37.5 39.5364C38.0511 39.3076 38.5223 38.9211 38.8545 38.4254C39.1867 37.9296 39.3652 37.3469 39.3673 36.7502C39.3561 35.9421 39.0279 35.1707 38.4534 34.6021C37.8788 34.0337 37.1041 33.7136 36.2958 33.7109Z" fill="white"/>
</svg>
