<svg width="16" height="16" viewBox="0 0 16 16" fill="none" xmlns="http://www.w3.org/2000/svg">
<g clip-path="url(#clip0_31_8105)">
<path d="M8.13961 9.18596C9.98912 9.18596 11.4884 7.68663 11.4884 5.83712C11.4884 3.98761 9.98912 2.48828 8.13961 2.48828C6.2901 2.48828 4.79077 3.98761 4.79077 5.83712C4.79077 7.68663 6.2901 9.18596 8.13961 9.18596Z" fill="#036C70"/>
<path d="M10.9301 11.9767C12.6255 11.9767 13.9999 10.6023 13.9999 8.90693C13.9999 7.21154 12.6255 5.83716 10.9301 5.83716C9.23473 5.83716 7.86035 7.21154 7.86035 8.90693C7.86035 10.6023 9.23473 11.9767 10.9301 11.9767Z" fill="#1A9BA1"/>
<path d="M8.55813 14.2093C9.8682 14.2093 10.9302 13.1472 10.9302 11.8372C10.9302 10.5271 9.8682 9.46509 8.55813 9.46509C7.24806 9.46509 6.18604 10.5271 6.18604 11.8372C6.18604 13.1472 7.24806 14.2093 8.55813 14.2093Z" fill="#37C6D0"/>
<path opacity="0.1" d="M8.69775 5.5107V11.466C8.69637 11.673 8.57097 11.8589 8.37961 11.9377C8.31869 11.9634 8.25321 11.9767 8.18706 11.9767H6.18891C6.18613 11.9293 6.18613 11.8847 6.18613 11.8372C6.1852 11.7906 6.18706 11.744 6.19171 11.6977C6.24279 10.8056 6.79234 10.0185 7.61218 9.66325V9.14418C5.78759 8.85504 4.54286 7.14153 4.832 5.31695C4.834 5.30431 4.83607 5.29168 4.83822 5.27907C4.85211 5.18495 4.87169 5.09176 4.89683 5H8.18706C8.46866 5.00107 8.69668 5.22909 8.69775 5.5107Z" fill="black"/>
<path opacity="0.2" d="M7.90781 5.27905H4.83804C4.52793 7.10035 5.75299 8.82819 7.57428 9.1383C7.62943 9.14769 7.68481 9.15569 7.74036 9.16231C6.87524 9.57254 6.24482 10.7377 6.19124 11.6977C6.1866 11.744 6.18473 11.7906 6.18566 11.8372C6.18566 11.8846 6.18566 11.9293 6.18845 11.9767C6.19348 12.0705 6.20561 12.1638 6.22473 12.2558H7.90752C8.11445 12.2544 8.30035 12.129 8.37914 11.9377C8.40491 11.8767 8.4182 11.8113 8.41821 11.7451V5.78975C8.41715 5.50826 8.1893 5.28028 7.90781 5.27905Z" fill="black"/>
<path opacity="0.2" d="M7.90802 5.27905H4.83825C4.52822 7.10052 5.75346 8.82844 7.57493 9.13849C7.61219 9.14483 7.64955 9.15054 7.687 9.15562C6.84979 9.59543 6.24421 10.7578 6.19175 11.6977H7.90802C8.18919 11.6955 8.4166 11.4681 8.41872 11.187V5.78975C8.41765 5.50815 8.18963 5.28012 7.90802 5.27905Z" fill="black"/>
<path opacity="0.2" d="M7.62886 5.27905H4.83816C4.5454 6.99854 5.62284 8.65442 7.31351 9.08333C6.67334 9.81475 6.2807 10.7298 6.19165 11.6977H7.62886C7.91047 11.6966 8.13849 11.4686 8.13956 11.187V5.78975C8.13941 5.50777 7.91085 5.27921 7.62886 5.27905Z" fill="black"/>
<path d="M2.51153 5.27905H7.628C7.91051 5.27905 8.13953 5.50807 8.13953 5.79059V10.9071C8.13953 11.1896 7.91051 11.4186 7.628 11.4186H2.51153C2.22902 11.4186 2 11.1896 2 10.9071V5.79059C2 5.50807 2.22902 5.27905 2.51153 5.27905Z" fill="url(#paint0_linear_31_8105)"/>
<path d="M4.28466 8.28618C4.16478 8.20666 4.06465 8.10081 3.99191 7.97669C3.92144 7.84694 3.88631 7.70095 3.89005 7.55334C3.88377 7.35349 3.95121 7.15831 4.07954 7.00497C4.21438 6.85144 4.38868 6.73775 4.58354 6.67622C4.80561 6.60313 5.03822 6.56711 5.272 6.56962C5.57944 6.55839 5.88645 6.60137 6.17898 6.6966V7.33846C6.05187 7.26146 5.91343 7.20495 5.76874 7.17102C5.61175 7.13252 5.45066 7.11321 5.28902 7.11353C5.11857 7.10727 4.9492 7.14312 4.7959 7.2179C4.67755 7.26895 4.6008 7.38539 4.60056 7.51427C4.60008 7.59246 4.63011 7.66775 4.68428 7.72414C4.74826 7.79061 4.82394 7.84472 4.90754 7.88377C5.00056 7.93009 5.14009 7.99168 5.32614 8.06851C5.34663 8.07499 5.36659 8.08301 5.38586 8.09251C5.56897 8.16407 5.74561 8.25119 5.91386 8.35289C6.04127 8.43145 6.14821 8.53914 6.22586 8.66712C6.30548 8.81218 6.34407 8.97619 6.33749 9.14154C6.34658 9.34672 6.28381 9.54864 6.16 9.71251C6.0366 9.86316 5.87162 9.97419 5.68558 10.0318C5.46677 10.1004 5.2384 10.1335 5.00912 10.13C4.8034 10.1309 4.59799 10.1141 4.39516 10.0798C4.2239 10.0517 4.05678 10.0026 3.89759 9.93353V9.25679C4.04975 9.36546 4.21975 9.44669 4.39991 9.49679C4.57946 9.55274 4.7661 9.58263 4.95414 9.58554C5.12818 9.59656 5.30191 9.55969 5.45647 9.47893C5.56474 9.41784 5.63059 9.30211 5.62782 9.17781C5.62854 9.09133 5.59433 9.00822 5.53294 8.94731C5.45659 8.87235 5.36819 8.81076 5.27145 8.76507C5.15983 8.70925 4.99545 8.63568 4.77834 8.54432C4.60561 8.47488 4.44024 8.38841 4.28466 8.28618Z" fill="white"/>
</g>
<defs>
<linearGradient id="paint0_linear_31_8105" x1="3.06656" y1="4.87935" x2="7.07297" y2="11.8183" gradientUnits="userSpaceOnUse">
<stop stop-color="#058F92"/>
<stop offset="0.5" stop-color="#038489"/>
<stop offset="1" stop-color="#026D71"/>
</linearGradient>
<clipPath id="clip0_31_8105">
<rect width="12" height="11.7209" fill="white" transform="translate(2 2.48828)"/>
</clipPath>
</defs>
</svg>
